<?xml version="1.0" encoding="utf-8"?>
<!-- Generator: Adobe Illustrator 21.0.0, SVG Export Plug-In . SVG Version: 6.00 Build 0)  -->
<svg version="1.1" id="Layer_1" xmlns="http://www.w3.org/2000/svg" xmlns:xlink="http://www.w3.org/1999/xlink" x="0px" y="0px"
	 width="1400px" height="980px" viewBox="0 0 1400 980" style="enable-background:new 0 0 1400 980;" xml:space="preserve">
<style type="text/css">
	.st0{fill-rule:evenodd;clip-rule:evenodd;fill:#F7D8BB;}
	.st1{fill-rule:evenodd;clip-rule:evenodd;fill:#FFFFFF;}
	.st2{fill-rule:evenodd;clip-rule:evenodd;fill:#E6CAAF;}
	.st3{fill-rule:evenodd;clip-rule:evenodd;fill:#FAE4D0;}
	.st4{fill-rule:evenodd;clip-rule:evenodd;fill:#FFEFE0;}
	.st5{fill-rule:evenodd;clip-rule:evenodd;fill:#FFF5EB;}
	.st6{fill-rule:evenodd;clip-rule:evenodd;fill:#EBD3BC;}
	.st7{fill-rule:evenodd;clip-rule:evenodd;fill:#F2DDC9;}
	.st8{fill-rule:evenodd;clip-rule:evenodd;fill:#FCECDD;}
	.st9{fill-rule:evenodd;clip-rule:evenodd;fill:#FFB495;}
	.st10{fill-rule:evenodd;clip-rule:evenodd;fill:#637D82;}
	.st11{fill-rule:evenodd;clip-rule:evenodd;fill:#CCCCCC;}
	.st12{fill-rule:evenodd;clip-rule:evenodd;fill:#93BDC4;}
	.st13{fill-rule:evenodd;clip-rule:evenodd;fill:#81D6D3;}
	.st14{fill-rule:evenodd;clip-rule:evenodd;fill:#599997;}
	.st15{fill-rule:evenodd;clip-rule:evenodd;fill:#78C4C1;}
	.st16{fill-rule:evenodd;clip-rule:evenodd;fill:#DB9C81;}
	.st17{fill-rule:evenodd;clip-rule:evenodd;fill:#D1957B;}
	.st18{fill-rule:evenodd;clip-rule:evenodd;fill:#88654F;}
	.st19{fill-rule:evenodd;clip-rule:evenodd;fill:#FF917D;}
	.st20{fill-rule:evenodd;clip-rule:evenodd;fill:#4E8785;}
	.st21{fill-rule:evenodd;clip-rule:evenodd;fill:#E6E6E6;}
	.st22{fill-rule:evenodd;clip-rule:evenodd;fill:#D9BDA3;}
</style>
<g>
	<rect y="0" class="st0" width="1400" height="980"/>
	<path class="st1" d="M852.7,246.5c3.6-4.7,53.1-36.5-70.8-25.9c-18.7,1.6-149.1,10.2-147.9,0c19.4-174.8-347.7,28.5-354.7,28.6
		c-92.8,1.9-186.4,2.1-279.2,5.9v26.9c81.6,0.7,176.2,0.3,193.2,0.5l362.5,4.1c273.3,3.1,566.3,11.8,844.3,4.7v-42.9
		c-132.5,2.3-265.1,4.5-397.8,7.2C976.5,256.2,838.1,265.3,852.7,246.5z"/>
	<polygon class="st2" points="687.3,518.3 1400,568.4 1400,392 585,365.9 	"/>
	<polygon class="st3" points="800.6,980 1400,980 1400,568.4 727.7,521.1 	"/>
	<g>
		<polygon class="st4" points="1132.8,980 1316.2,980 1367,658.3 1106.7,636.9 		"/>
		<g>
			<polygon class="st5" points="1152.7,980 1206,980 1277.6,651 1225.2,646.7 			"/>
			<polygon class="st5" points="1215.3,980 1237.6,980 1308.7,653.5 1286.7,651.7 			"/>
		</g>
		<polygon class="st6" points="1216.4,815.5 1282,823.6 1298,793.2 1210.9,785 		"/>
		<g>
			<polygon class="st7" points="1216.4,815.5 1241.2,818.6 1247.7,788.4 1210.9,785 			"/>
			<polygon class="st7" points="1250.2,819.7 1271.9,822.4 1278.7,791.3 1256.8,789.3 			"/>
		</g>
		<polygon class="st3" points="1179.7,980 1194.9,980 1184.5,818.2 1300.8,830.7 1267.3,980 1281.4,980 1320.1,820.9 1169.3,802.9 
					"/>
		<g>
			<polygon class="st8" points="1173.9,882.4 1179.7,980 1194.9,980 1185.3,830.1 			"/>
			<polygon class="st8" points="1187.8,818.5 1240,824.2 1242.7,811.7 1190.7,805.5 			"/>
			<polygon class="st8" points="1249,825.1 1270.8,827.5 1273.4,815.4 1251.7,812.8 			"/>
		</g>
	</g>
	<g>
		<polygon class="st4" points="833.3,980 1029.2,980 1083.5,636.3 805.4,613.5 		"/>
		<g>
			<polygon class="st5" points="854.6,980 911.5,980 988,628.5 932.1,623.9 			"/>
			<polygon class="st5" points="921.4,980 945.3,980 1021.2,631.2 997.8,629.3 			"/>
		</g>
		<polygon class="st6" points="922.6,804.2 992.7,812.9 1009.8,780.4 916.8,771.6 		"/>
		<g>
			<polygon class="st7" points="922.6,804.2 949.1,807.5 956.1,775.3 916.8,771.6 			"/>
			<polygon class="st7" points="958.7,808.7 981.9,811.6 989.1,778.4 965.8,776.2 			"/>
		</g>
		<polygon class="st3" points="883.3,980 899.6,980 888.6,807.1 1012.7,820.5 977,980 992.1,980 1033.4,810 872.3,790.8 		"/>
		<g>
			<polygon class="st8" points="892.1,807.5 947.8,813.5 950.7,800.2 895.1,793.6 			"/>
			<polygon class="st8" points="877.3,875.7 883.3,980 899.6,980 889.4,819.9 			"/>
			<polygon class="st8" points="957.4,814.5 980.7,817.1 983.6,804.1 960.3,801.3 			"/>
		</g>
	</g>
	<g>
		<g>
			<path class="st9" d="M820.7,756.5l-6.7,23.2l-24.3-3.8l-7.4-1.2l-2.1,10.2l-7,34.3c-40.8,11.6-76.5-15.9-96-64.2
				c-5.1-12.6-4.8-25.7-3.7-39.9c-3,6.6-5,10.7-5,10.7l-85.9,53.6l-2.6-1.5c3.4,11.4,7.2,21.7,11.4,30.8
				c30.8,156.2,116.1,178.2,215,85.7l71.1-37.6l2.4-87.3l-43.7-16.9L820.7,756.5z"/>
			<path class="st10" d="M853.1,668.4l-177.6-47.6c-11.4-3-23.2,3.8-26.2,15.1l-71.7,267.4c-3,11.4,3.8,23.2,15.1,26.2l177.6,47.6
				c11.4,3,23.2-3.8,26.2-15.1l71.7-267.4C871.3,683.2,864.5,671.4,853.1,668.4z"/>
			
				<rect x="583.6" y="712" transform="matrix(0.2588 -0.9659 0.9659 0.2588 -235.9062 1290.5511)" class="st1" width="278.8" height="174"/>
			<path class="st11" d="M816.7,662.4l-106.6-28.6c-2.8-0.7-5.7-0.3-8,1.1c-2.3,1.4-4.2,3.6-4.9,6.4l-4.6,17.3
				c-0.8,2.8-0.3,5.7,1.1,8c1.4,2.3,3.6,4.2,6.4,4.9l106.7,28.6c2.8,0.8,5.7,0.3,8-1.1c2.3-1.3,4.2-3.6,4.9-6.4l4.6-17.4
				c0.8-2.8,0.3-5.7-1.1-8C821.8,665,819.5,663.2,816.7,662.4z M817.7,673.6l-4.6,17.3c-0.3,1-1,1.9-1.8,2.4
				c-0.9,0.5-1.9,0.7-2.9,0.4l-106.6-28.6c-1-0.3-1.9-1-2.4-1.8c-0.5-0.9-0.7-1.9-0.4-2.9l4.6-17.4c0.3-1,1-1.9,1.8-2.4
				c0.9-0.5,1.9-0.7,2.9-0.4L815,668.9c1,0.3,1.9,1,2.4,1.8C817.8,671.5,818,672.6,817.7,673.6z"/>
			<path class="st12" d="M810.5,647.7l-87.6-23.5c-3.8-1-7.8,1.3-8.8,5.1l-4.7,17.4c-1,3.8,1.3,7.8,5.1,8.8l87.6,23.5
				c3.8,1,7.8-1.3,8.8-5.1l4.6-17.4C816.6,652.7,814.3,648.7,810.5,647.7z"/>
			
				<rect x="728.7" y="670.5" transform="matrix(0.2588 -0.9659 0.9659 0.2588 -159.4372 1246.3655)" class="st10" width="7.5" height="113.2"/>
			
				<rect x="721.4" y="704.8" transform="matrix(0.2588 -0.9659 0.9659 0.2588 -199.4269 1262.9341)" class="st10" width="3.7" height="113.2"/>
			
				<rect x="719" y="713.6" transform="matrix(0.2588 -0.9659 0.9659 0.2588 -209.6035 1267.1398)" class="st10" width="3.7" height="113.2"/>
			
				<rect x="716.7" y="722.3" transform="matrix(0.2588 -0.9659 0.9659 0.2588 -219.7554 1271.3928)" class="st10" width="3.7" height="113.2"/>
			
				<rect x="714.3" y="731" transform="matrix(0.2588 -0.9659 0.9659 0.2588 -229.9461 1275.5712)" class="st10" width="3.7" height="113.2"/>
			
				<rect x="712" y="739.8" transform="matrix(0.2588 -0.9659 0.9659 0.2588 -240.1181 1279.7883)" class="st10" width="3.7" height="113.2"/>
			
				<rect x="709.7" y="748.5" transform="matrix(0.2588 -0.9659 0.9659 0.2588 -250.2985 1283.9845)" class="st10" width="3.7" height="113.2"/>
			
				<rect x="707.3" y="757.2" transform="matrix(0.2588 -0.9659 0.9659 0.2588 -260.4459 1288.2483)" class="st10" width="3.7" height="113.2"/>
			
				<rect x="705" y="766" transform="matrix(0.2588 -0.9659 0.9659 0.2588 -270.6368 1292.4263)" class="st10" width="3.7" height="113.2"/>
			
				<rect x="702.6" y="774.7" transform="matrix(0.2588 -0.9659 0.9659 0.2588 -280.8134 1296.6345)" class="st10" width="3.7" height="113.2"/>
			<path class="st13" d="M613.8,488.6c-45.7-41.9-79.4-58.8-79.4-58.8l-185.6-1.9c-155.7,25.1-221.9,106.9-235.9,184.7l151.4,125.7
				c9.1,1.5,19.4-1.7,28.9-11.2c14.2,23.7,22.5,30.1,41.4,43.3c3.4,66-7.6,137.4-20.8,209.6h310.4c8.1-289.2,90.2-226.9,40.8-402.2
				C659.1,545,638.8,511.6,613.8,488.6z"/>
			<path class="st14" d="M112.9,612.6l151.4,125.7c7.1,1.2,15.1-0.6,22.8-6L123.6,575.7C118.6,588,115.1,600.3,112.9,612.6z"/>
			<path class="st15" d="M606.4,660l-5.9,1.4c4.6-51.7,1.3-103.1-10.8-154.4c-3-12.7-12.1-36.9-19-53.9c-6.2-4.5-11.8-8.3-16.6-11.5
				c9.5,21.1,21,50.4,25.1,67.8c11.8,49.9,15,100,10.7,150.2c-51.1-53.1-106.2-99.8-164.4-141.6c-38.2-27.5-83.1-56.2-124.1-80.1
				c-4.9,1.3-9.7,2.7-14.4,4.1c43.9,25.2,91.5,55.4,132.2,84.7C476.4,567.9,530.7,613.9,581,666l-18.9,4.5c-3.9,0.9-7.1,5.1-7.1,9.2
				v102.2c0,4.2,3.2,6.8,7.1,5.9l44.3-10.5c3.9-0.9,7.1-5.1,7.1-9.2V665.9C613.6,661.7,610.4,659.1,606.4,660z"/>
			<path class="st15" d="M471.8,740.7c-47.1,12.8-122.9-12.6-132.2-67.4c-10.9,31.5-36,47.9-46.3,53.8
				c14.2,23.7,22.5,30.1,41.4,43.3c3.4,66-7.6,137.4-20.8,209.6h83C396,872.4,480.7,738.2,471.8,740.7z"/>
			<polygon class="st9" points="820.7,756.5 796.9,845 877.3,856.7 879.8,769.3 836.1,752.4 			"/>
			<path class="st14" d="M534.4,429.8l-185.6-1.9l-25.7,4.8C546.6,587.4,614,497.2,534.4,429.8z"/>
			<path class="st16" d="M525.8,303.5l-134.7-36.9l-42.3,161.3C527,549,588.1,489,535.3,430.8L525.8,303.5z"/>
			<path class="st17" d="M348.8,427.9c50.9,34.6,92.2,54.4,124.1,63.7c-44.1-47.6-74.7-73.7-96.4-169.4L348.8,427.9z"/>
			<path class="st9" d="M367.5,210.3l88.2,209.9l99.9-8.9c18.9-67.1,37.7-171.5,5-237.3L367.5,210.3z"/>
			<path class="st18" d="M452.9,210.9l-85.4-0.6c-0.9,6.6-5,26.1-4.2,30.5c-58.2,30.4,9.8,75.9,4,116.9l47.7-34.6
				C477.4,283.3,391.4,237.4,452.9,210.9z"/>
			<path class="st1" d="M453.6,349.6l17.8,34.8c0,0,58.5,0,65.8-2c7.3-1.9,5.6-31.9,5.6-31.9L453.6,349.6z"/>
			<path class="st18" d="M548,252c-4.7,0-8.5,8.3-8.5,18.6c0,2.4,0.2,4.8,0.6,6.9c5.1-0.8,11-1.1,16-1.1c0.3-1.8,0.4-3.8,0.4-5.8
				C556.5,260.3,552.7,252,548,252z"/>
			<path class="st18" d="M487,251.6c-4.7,0-8.5,8.3-8.5,18.6c0,2,0.1,4,0.4,5.8c5,0,10.9,0.3,16,1.1c0.4-2.1,0.6-4.5,0.6-6.9
				C495.5,260,491.7,251.6,487,251.6z"/>
			<path class="st18" d="M533.7,229.1c-2.2,0-0.2,13.2-0.2,13.2l48.7,3.7l-2.2-11.2C580,234.7,535.9,229.1,533.7,229.1z"/>
			<path class="st18" d="M506.9,226.9c-2.2,0-46.3,5.6-46.3,5.6l-2.2,11.2l48.7-3.7C507.1,240,509.1,226.9,506.9,226.9z"/>
			<circle class="st9" cx="406.7" cy="302.7" r="30.1"/>
			<polygon class="st19" points="515,316 544.3,314.5 520.4,267.3 			"/>
			<path class="st18" d="M568.3,101.7c-7.3-6.4-128.8,42.7-189.5,93.3c-34.9,29.1-56.8,6.5-56.8,6.5c5,24.1,15.8,40.9,41.1,39.3
				l89.6-29.9l107.7-36.8C560.6,174.1,580,111.8,568.3,101.7z"/>
			<path class="st15" d="M112.9,612.6l42,34.9c16.2-63.9,49.7-148,114.9-199.6C170,483.8,124.2,549.5,112.9,612.6z"/>
			<path class="st20" d="M112.9,612.6l42,34.9c2.7-10.4,5.8-21.4,9.4-32.7l-40.8-39C118.6,588,115.1,600.3,112.9,612.6z"/>
			<g>
				<path class="st9" d="M264.4,738.3L112.9,612.6C38.8,731.2,85.2,865.4,214.8,980H363C278.9,907.5,246.6,811.1,264.4,738.3z"/>
				<path class="st16" d="M152.2,645.2l-39.3-32.6C38.8,731.2,85.2,865.4,214.8,980h20.9C154.7,892.2,94.7,779.8,152.2,645.2z"/>
			</g>
			<path class="st14" d="M575.6,454.8c-6.5-5-12.5-9.2-17.8-12.8c9.9,20.2,17.9,40.6,22.9,61.9c11.8,49.9,15,100,10.7,150.2
				C540.3,601,485.2,554.3,427,512.5c-39.8-28.6-80.9-54.9-123.1-79.3c-5,1.3-9.9,2.6-14.6,4c45.3,25.8,89.2,53.6,131.5,84
				c60.7,43.6,118,92.7,171,148.8l8,8.5l1.3-11.6c6.1-55.4,3.2-110.5-9.7-165.5C587.5,485.5,582.1,470,575.6,454.8z"/>
			<path class="st14" d="M616.1,646.3l-44.3,10.5c-3.9,0.9-7.1,5.1-7.1,9.2v102.1c0,4.2,3.2,6.8,7.1,5.9l44.3-10.5
				c3.9-0.9,7.1-5.1,7.1-9.2V652.2C623.2,648,620,645.4,616.1,646.3z"/>
			<path class="st21" d="M607.5,664.5l-25.8,6.1c-2.3,0.5-4.2,3-4.2,5.4v35.9c0,2.4,1.9,3.9,4.2,3.4l25.8-6.1c2.3-0.5,4.2-3,4.2-5.4
				v-35.9C611.7,665.5,609.8,663.9,607.5,664.5z"/>
			<g>
				<polygon class="st15" points="410,720.4 498.8,700.6 498.8,677.8 410,697.6 				"/>
				<polygon class="st14" points="414.9,712.9 503.6,693.1 503.6,670.3 414.9,690.1 				"/>
				<polygon class="st1" points="430.7,701.4 487.8,688.7 487.8,682 430.7,694.7 				"/>
			</g>
		</g>
		<path class="st17" d="M390.7,298.6l14.8,2.8c-6.1,3.1,2.3,19.8,10.9,18c5.7-1.1,5.4-10.8,1.6-18
			C412.7,291.4,395.8,280.9,390.7,298.6z"/>
	</g>
	<g>
		<path class="st22" d="M1030.1,503.2c-3.5,46.1,84.3,92,196.1,102.5c71.9,6.8,136.1-2.7,173.8-22.6v-94.4
			c-35.2-24.3-93.9-43.5-161.2-49.9C1127,428.3,1033.6,457.1,1030.1,503.2z"/>
		<polygon class="st3" points="1276.3,512.9 1263.7,512.1 1264.7,504.8 1276.3,505.5 1277.4,497.1 1265.8,496.4 1266.6,490.3 
			1279.2,491.1 1280.3,482.8 1257.2,481.3 1252.1,519.9 1275.2,521.4 		"/>
		<polygon class="st3" points="1126.5,511.7 1136.8,512.4 1138.7,497.9 1150.3,498.7 1151.4,490.3 1139.8,489.5 1140.8,482.2 
			1153.4,483 1154.5,474.6 1131.6,473.1 		"/>
		<polygon class="st3" points="1155.3,562.7 1178.4,564.2 1179.5,555.7 1166.9,554.9 1167.9,547.6 1179.5,548.3 1180.6,539.9 
			1169,539.2 1169.8,533.1 1182.4,533.9 1183.5,525.5 1160.4,524 		"/>
		<polygon class="st3" points="1181.3,515.3 1191.8,516 1195.8,485.9 1205.2,486.5 1206.4,478 1176.9,476 1175.8,484.6 
			1185.3,485.2 		"/>
		<polygon class="st3" points="1171.4,475.7 1160.9,475 1155.8,513.6 1166.3,514.3 		"/>
		<path class="st3" d="M1215.6,545.2c-0.3,2.4-0.6,5.5-0.9,9.4l-0.2,0l-10.6-27.8l-13.7-0.9l-5.1,38.6l9.3,0.6l2.3-17.4
			c0.3-2.3,0.6-5.5,0.8-9.8l0.2,0l10.6,28.1l13.8,0.9l5.1-38.6l-9.3-0.6L1215.6,545.2z"/>
		<path class="st3" d="M1132.3,524.1c-3.1,1.4-5.5,3.6-7.5,6.6c-1.9,2.9-3.1,6.4-3.7,10.4c-0.8,6.4,0.1,11.4,2.8,15
			c2.7,3.6,6.9,5.6,12.8,6c4.1,0.3,7.8-0.2,11.3-1.4l1.2-8.8c-1.7,0.6-3.4,1-5.1,1.4c-1.7,0.4-3.4,0.5-5.1,0.4
			c-5.7-0.4-8-4.3-7.1-11.7c0.5-3.6,1.5-6.3,3.2-8.3c1.7-1.9,3.7-2.8,6.2-2.7c1.7,0.1,3.2,0.4,4.5,1c1.4,0.6,2.7,1.2,4.1,2l4.3-8
			c-3.6-2.1-7.5-3.2-11.7-3.5C1138.8,522.1,1135.3,522.7,1132.3,524.1z"/>
		<path class="st3" d="M1324.6,546.2c1-7.6-3.8-11.8-14.3-12.4l-12.7-0.8l-5.1,38.6l10.5,0.7l1.9-14.1l2.7,0.2l6.4,14.6l11.9,0.8
			l-9.1-17.6C1321.3,554,1324,550.7,1324.6,546.2z M1313.9,546c-0.4,3.2-2.5,4.7-6.1,4.5l-2-0.1l1.2-8.8l2.1,0.1
			C1312.7,541.9,1314.3,543.3,1313.9,546z"/>
		<path class="st3" d="M1327.1,494.4c0.7-0.4,1.7-0.6,3.1-0.5c2.6,0.2,5.6,1.2,9.1,3.1l4.3-7.8c-3.9-2.1-7.9-3.3-11.9-3.6
			c-4.5-0.3-8.3,0.5-11.1,2.3c-2.9,1.8-4.5,4.5-5,8.1c-0.2,1.9-0.2,3.6,0.3,5c0.4,1.4,1.2,2.7,2.3,3.9c1.1,1.2,2.9,2.4,5.2,3.7
			c2.6,1.4,4.2,2.4,4.8,2.8c0.6,0.4,1,0.9,1.2,1.3c0.2,0.4,0.3,0.9,0.3,1.4c-0.1,0.8-0.6,1.5-1.4,2c-0.8,0.5-2,0.7-3.5,0.6
			c-1.8-0.1-3.7-0.5-5.8-1.2c-2.1-0.7-4.1-1.6-5.9-2.8l-1.2,9.3c1.8,1,3.5,1.8,5.2,2.3c1.7,0.5,3.9,0.8,6.4,1c3.1,0.2,5.9-0.1,8.3-1
			c2.4-0.9,4.4-2.2,5.9-4c1.5-1.8,2.4-3.9,2.7-6.3c0.3-2.6,0-4.8-1.1-6.6c-1.1-1.8-3.2-3.6-6.3-5.3c-3.3-1.8-5.3-3-6-3.7
			c-0.7-0.6-1-1.4-0.9-2.1C1326,495.4,1326.4,494.8,1327.1,494.4z"/>
		<path class="st3" d="M1248.8,480.7l-9.3-0.6l-2.3,17.5c-0.3,2.4-0.6,5.5-0.9,9.4l-0.2,0l-10.6-27.8l-13.7-0.9l-5.1,38.6l9.3,0.6
			l2.3-17.4c0.3-2.3,0.6-5.5,0.8-9.8l0.2,0l10.6,28.1l13.8,0.9L1248.8,480.7z"/>
		<path class="st3" d="M1300.4,522c2.4-0.9,4.4-2.2,5.9-4c1.5-1.8,2.4-3.9,2.7-6.3c0.3-2.6,0-4.8-1.1-6.6c-1.1-1.8-3.2-3.6-6.3-5.3
			c-3.3-1.8-5.3-3-6-3.7c-0.7-0.7-1-1.4-0.9-2.1c0.1-0.7,0.5-1.3,1.2-1.7c0.7-0.4,1.7-0.6,3.1-0.5c2.6,0.2,5.7,1.2,9.1,3.1l4.3-7.8
			c-3.9-2.1-7.9-3.3-11.9-3.6c-4.5-0.3-8.3,0.5-11.1,2.3c-2.9,1.8-4.5,4.5-5,8.1c-0.3,1.9-0.2,3.6,0.3,5c0.4,1.4,1.2,2.7,2.3,3.9
			c1.1,1.2,2.9,2.4,5.3,3.7c2.6,1.4,4.2,2.4,4.8,2.8c0.6,0.4,1,0.9,1.2,1.3c0.2,0.4,0.3,0.9,0.3,1.4c-0.1,0.8-0.6,1.5-1.4,2
			c-0.8,0.5-2,0.7-3.5,0.6c-1.8-0.1-3.7-0.5-5.8-1.2c-2.1-0.7-4.1-1.6-5.9-2.8l-1.2,9.3c1.8,1,3.5,1.8,5.2,2.3
			c1.7,0.5,3.8,0.8,6.4,1C1295.2,523.2,1297.9,522.9,1300.4,522z"/>
		<polygon class="st3" points="1231.6,537.3 1241.1,537.9 1237.1,568 1247.6,568.7 1251.6,538.6 1261.1,539.2 1262.2,530.6 
			1232.8,528.7 		"/>
		<polygon class="st3" points="1262.6,569.6 1285.7,571.1 1286.8,562.6 1274.2,561.8 1275.2,554.5 1286.8,555.3 1287.9,546.9 
			1276.3,546.1 1277.1,540.1 1289.7,540.9 1290.8,532.5 1267.7,531 		"/>
	</g>
</g>
</svg>
